v 1.000 0.000 0.000
v 0.707 0.000 0.707
v 0.000 0.000 1.000
v -0.707 0.000 0.707
v -1.000 0.000 0.000
v -0.707 0.000 -0.707
v -0.000 0.000 -1.000
v 0.707 0.000 -0.707
v 0.970 1.400 0.000
v 0.721 1.400 0.601
v 0.120 1.400 0.850
v -0.481 1.400 0.601
v -0.730 1.400 0.000
v -0.481 1.400 -0.601
v 0.120 1.400 -0.850
v 0.721 1.400 -0.601
v 0.900 2.600 0.000
v 0.724 2.600 0.424
v 0.300 2.600 0.600
v -0.124 2.600 0.424
v -0.300 2.600 0.000
v -0.124 2.600 -0.424
v 0.300 2.600 -0.600
v 0.724 2.600 -0.424
v 0.630 3.000 0.000
v 0.557 3.000 0.177
v 0.380 3.000 0.250
v 0.203 3.000 0.177
v 0.130 3.000 0.000
v 0.203 3.000 -0.177
v 0.380 3.000 -0.250
v 0.557 3.000 -0.177
f 1 2 10 9
f 2 3 11 10
f 3 4 12 11
f 4 5 13 12
f 5 6 14 13
f 6 7 15 14
f 7 8 16 15
f 8 1 9 16
f 9 10 18 17
f 10 11 19 18
f 11 12 20 19
f 12 13 21 20
f 13 14 22 21
f 14 15 23 22
f 15 16 24 23
f 16 9 17 24
f 17 18 26 25
f 18 19 27 26
f 19 20 28 27
f 20 21 29 28
f 21 22 30 29
f 22 23 31 30
f 23 24 32 31
f 24 17 25 32
f 32 31 30 29 28 27 26 25
f 1 2 3 4 5 6 7 8
